<svg xmlns="http://www.w3.org/2000/svg" xmlns:xlink="http://www.w3.org/1999/xlink" x="0px" y="0px"
	 viewBox="0 0 284.2 62.9">
<style type="text/css">
	.st0{fill:#003E78;}
	.st1{fill:#878787;}
</style>
	<g>
		<path class="st0" d="M0.4,0l0,27.1h34L13.8,12c3,4.9,3.3,9.3-1.1,9.3c-1.7,0-4,0-5.6,0V6.7h30.4v30.4H7.1v-6.4H0.4v13.2h43.8V0
			H0.4z"/>
		<g>
			<path class="st0" d="M90.5,19.8h-8.5v7.3h8.5l0,4.7c-1.7,1.5-4.9,3-8.5,3c-7.2,0-12.4-5.5-12.4-13c0-7.5,5.2-13,12.4-13
				c4.1,0,7.5,2.2,9.4,5l7-3.8c-3-4.7-8.2-8.6-16.3-8.6c-11.5,0-21,7.9-21,20.4c0,12.4,9.5,20.5,21,20.5c7.2,0,12.8-3,16.8-7.5V19.8
				L90.5,19.8L90.5,19.8z"/>
			<polygon class="st0" points="113.6,2.1 105.2,2.1 105.2,41.6 130.3,41.6 130.3,34.2 113.6,34.2 			"/>
			<path class="st0" d="M152.8,1.5c-11.9,0-20.6,8.5-20.6,20.4c0,11.9,8.7,20.4,20.6,20.4c12,0,20.7-8.5,20.7-20.4
				C173.5,10,164.8,1.5,152.8,1.5z M152.8,34.9c-7.3,0-12-5.6-12-13c0-7.4,4.7-13,12-13c7.3,0,12,5.6,12,13
				C164.9,29.2,160.1,34.9,152.8,34.9z"/>
			<path class="st0" d="M229.4,2.1l-15.3,39.5h9.2l2.5-6.8h17.6l2.5,6.8h9.2L240,2.1H229.4z M228.1,27.5l6.6-18.1l6.5,18.1H228.1z"
				/>
			<polygon class="st0" points="267.1,34.2 267.1,2.1 258.7,2.1 258.7,41.6 283.8,41.6 283.8,34.2 			"/>
			<path class="st0" d="M205,21.2c3.7-0.8,6.8-4.1,6.8-9.1c0-5.3-3.8-10.1-11.4-10.1h-20.8h-1.4l9.8,7.2h10.5c2.8,0,4.6,1.9,4.6,4.3
				c0,2.5-1.8,4.4-4.6,4.4h-10.5V9.3l-8.4,0v32.3h21.4c7.5,0,11.5-4.7,11.5-10.7C212.6,26,209.2,21.9,205,21.2z M198.9,34.5h-10.8
				v-9.3h10.8c3.3,0,5.1,2.1,5.1,4.6C204,32.6,202.1,34.5,198.9,34.5z"/>
		</g>
		<g>
			<path class="st1" d="M126.7,53.1h6.1v0.8h-5.3v3.6h5.2v0.8h-5.2v4.6h-0.8V53.1z"/>
			<path class="st1" d="M134.4,53.1h0.8V62h4.7v0.8h-5.5V53.1z"/>
			<path class="st1" d="M141.6,53.1h0.8v9.6h-0.8V53.1z"/>
			<path class="st1" d="M144.8,53.1h6.1v0.8h-5.3v3.6h5.2v0.8h-5.2V62h5.3v0.8h-6.1V53.1z"/>
			<path class="st1" d="M157.3,52.9c1.6,0,2.7,0.6,3.6,1.6l-0.6,0.4c-0.7-0.8-1.8-1.3-3-1.3c-2.3,0-4,1.7-4,4.2c0,2.5,1.7,4.2,4,4.2
				c1.3,0,2.3-0.6,2.8-1.2v-2.3h-3.6v-0.7h4.5v3.4c-0.9,1-2.1,1.6-3.7,1.6c-2.7,0-4.9-2-4.9-5C152.5,54.9,154.7,52.9,157.3,52.9z"/>
			<path class="st1" d="M163.2,53.1h6.1v0.8H164v3.6h5.2v0.8H164V62h5.3v0.8h-6.1V53.1z"/>
			<path class="st1" d="M172.1,54.4v8.3h-0.8v-9.6h0.8l6,8.2v-8.2h0.8v9.6h-0.8L172.1,54.4z"/>
			<path class="st1" d="M181.3,60.8c0.6,0.7,1.6,1.4,3,1.4c2,0,2.5-1.1,2.5-1.9c0-1.4-1.3-1.7-2.6-2.1c-1.5-0.4-3.1-0.9-3.1-2.6
				c0-1.6,1.4-2.6,3.2-2.6c1.4,0,2.5,0.5,3.3,1.4l-0.5,0.6c-0.7-0.8-1.7-1.2-2.8-1.2c-1.3,0-2.3,0.7-2.3,1.8c0,1.1,1.2,1.5,2.5,1.8
				c1.6,0.4,3.3,0.9,3.3,2.9c0,1.2-0.8,2.7-3.4,2.7c-1.6,0-2.8-0.6-3.5-1.5L181.3,60.8z"/>
			<path class="st1" d="M189.2,57.9c0-3,2.2-5,4.9-5c1.6,0,2.7,0.7,3.5,1.7l-0.7,0.4c-0.6-0.8-1.7-1.4-2.8-1.4c-2.2,0-4,1.7-4,4.2
				c0,2.5,1.7,4.2,4,4.2c1.2,0,2.2-0.6,2.8-1.4l0.7,0.4c-0.9,1.1-2,1.7-3.5,1.7C191.3,62.9,189.2,60.9,189.2,57.9z"/>
			<path class="st1" d="M206.1,58.2H200v4.6h-0.8v-9.6h0.8v4.3h6.1v-4.3h0.8v9.6h-0.8V58.2z"/>
			<path class="st1" d="M217.6,54.2l-3.5,8.5h-0.3l-3.5-8.5v8.5h-0.8v-9.6h1.2l3.3,8l3.3-8h1.2v9.6h-0.8V54.2z"/>
			<path class="st1" d="M220.9,53.1h0.8v9.6h-0.8V53.1z"/>
			<path class="st1" d="M224.2,53.1h3.1c3,0,4.9,2.2,4.9,4.8c0,2.7-1.9,4.8-4.9,4.8h-3.1V53.1z M227.3,62c2.5,0,4-1.8,4-4.1
				c0-2.3-1.4-4.1-4-4.1H225V62H227.3z"/>
			<path class="st1" d="M235.9,53.9h-3.1v-0.8h7.1v0.8h-3.1v8.9h-0.8V53.9z"/>
			<path class="st1" d="M249.8,52.9c1.6,0,2.7,0.6,3.6,1.6l-0.6,0.4c-0.7-0.8-1.8-1.3-3-1.3c-2.3,0-4,1.7-4,4.2c0,2.5,1.7,4.2,4,4.2
				c1.3,0,2.3-0.6,2.8-1.2v-2.3H249v-0.7h4.5v3.4c-0.9,1-2.1,1.6-3.7,1.6c-2.7,0-4.9-2-4.9-5C244.9,54.9,247.1,52.9,249.8,52.9z"/>
			<path class="st1" d="M263.8,54.2l-3.5,8.5H260l-3.5-8.5v8.5h-0.8v-9.6h1.2l3.3,8l3.3-8h1.2v9.6h-0.8V54.2z"/>
			<path class="st1" d="M267.2,53.1h4c1.6,0,2.7,0.9,2.7,2.5c0,1.2-0.8,2-1.7,2.2c1,0.2,1.9,1.2,1.9,2.4c0,1.6-1,2.6-2.8,2.6h-4
				V53.1z M271,57.4c1.2,0,1.9-0.8,1.9-1.8c0-1-0.6-1.8-1.9-1.8h-3v3.6H271z M271.1,62c1.3,0,2-0.7,2-1.9c0-1-0.7-1.9-2-1.9H268V62
				H271.1z"/>
			<path class="st1" d="M283,58.2h-6.1v4.6h-0.8v-9.6h0.8v4.3h6.1v-4.3h0.8v9.6H283V58.2z"/>
		</g>
	</g>
</svg>
